<svg xmlns="http://www.w3.org/2000/svg" xmlns:xlink="http://www.w3.org/1999/xlink" width="2000" zoomAndPan="magnify" viewBox="0 0 1500 1499.999933" height="2000" preserveAspectRatio="xMidYMid meet" version="1.0"><defs><g/><clipPath id="a1"><path d="M 150 150 L 1350 150 L 1350 1350 L 150 1350 Z M 150 150 " clip-rule="nonzero"/></clipPath><clipPath id="a2"><path d="M 750 150 C 418.628906 150 150 418.628906 150 750 C 150 1081.371094 418.628906 1350 750 1350 C 1081.371094 1350 1350 1081.371094 1350 750 C 1350 418.628906 1081.371094 150 750 150 Z M 750 150 " clip-rule="nonzero"/></clipPath><clipPath id="a3"><path d="M 0 0 L 1200 0 L 1200 1200 L 0 1200 Z M 0 0 " clip-rule="nonzero"/></clipPath><clipPath id="a4"><path d="M 600 0 C 268.628906 0 0 268.628906 0 600 C 0 931.371094 268.628906 1200 600 1200 C 931.371094 1200 1200 931.371094 1200 600 C 1200 268.628906 931.371094 0 600 0 Z M 600 0 " clip-rule="nonzero"/></clipPath><clipPath id="a5"><rect x="0" width="1200" y="0" height="1200"/></clipPath></defs><g clip-path="url(#a1)"><g clip-path="url(#a2)"><g transform="matrix(1, 0, 0, 1, 150, 150)"><g clip-path="url(#a5)"><g clip-path="url(#a3)"><g clip-path="url(#a4)"><rect x="-480" width="2160" fill="#5ad6a7" height="2159.999904" y="-479.999985" fill-opacity="1"/></g></g></g></g></g></g><g fill="#ffffff" fill-opacity="1"><g transform="translate(331.994653, 949.124898)"><g><path d="M 66.5 0 C 57.164062 0 49.25 -3.25 42.75 -9.75 C 36.25 -16.25 33 -24.164062 33 -33.5 L 33 -366.5 C 33 -376.164062 36.25 -384.164062 42.75 -390.5 C 49.25 -396.832031 57.164062 -400 66.5 -400 L 109 -400 C 118.664062 -400 126.664062 -396.832031 133 -390.5 C 139.332031 -384.164062 142.5 -376.164062 142.5 -366.5 L 142.5 -123.5 C 142.5 -114.5 145.582031 -106.75 151.75 -100.25 C 157.914062 -93.75 165.664062 -90.5 175 -90.5 L 259 -90.5 C 268.664062 -90.5 276.664062 -87.332031 283 -81 C 289.332031 -74.664062 292.5 -66.664062 292.5 -57 L 292.5 -33.5 C 292.5 -24.164062 289.332031 -16.25 283 -9.75 C 276.664062 -3.25 268.664062 0 259 0 Z M 66.5 0 "/></g></g></g><g fill="#ffffff" fill-opacity="1"><g transform="translate(657.490778, 949.124898)"><g><path d="M 66.5 0 C 57.164062 0 49.25 -3.25 42.75 -9.75 C 36.25 -16.25 33 -24.164062 33 -33.5 L 33 -366.5 C 33 -376.164062 36.25 -384.164062 42.75 -390.5 C 49.25 -396.832031 57.164062 -400 66.5 -400 L 269 -400 C 278.664062 -400 286.664062 -396.664062 293 -390 C 299.332031 -383.332031 302.5 -375.332031 302.5 -366 L 302.5 -123.5 C 302.5 -114.164062 305.664062 -106.332031 312 -100 C 318.332031 -93.664062 326 -90.5 335 -90.5 C 344.332031 -90.5 352.164062 -93.664062 358.5 -100 C 364.832031 -106.332031 368 -114.164062 368 -123.5 L 368 -366.5 C 368 -376.164062 371.25 -384.164062 377.75 -390.5 C 384.25 -396.832031 392.164062 -400 401.5 -400 L 444 -400 C 453.664062 -400 461.664062 -396.832031 468 -390.5 C 474.332031 -384.164062 477.5 -376.164062 477.5 -366.5 L 477.5 -33.5 C 477.5 -24.164062 474.332031 -16.25 468 -9.75 C 461.664062 -3.25 453.664062 0 444 0 L 241.5 0 C 232.164062 0 224.25 -3.332031 217.75 -10 C 211.25 -16.664062 208 -24.664062 208 -34 L 208 -277 C 208 -286 204.832031 -293.664062 198.5 -300 C 192.164062 -306.332031 184.332031 -309.5 175 -309.5 C 166 -309.5 158.332031 -306.332031 152 -300 C 145.664062 -293.664062 142.5 -286 142.5 -277 L 142.5 -33.5 C 142.5 -24.164062 139.332031 -16.25 133 -9.75 C 126.664062 -3.25 118.664062 0 109 0 Z M 66.5 0 "/></g></g></g></svg>
